<?xml version="1.0" encoding="utf-8"?>
<!-- Generator: Adobe Illustrator 19.0.0, SVG Export Plug-In . SVG Version: 6.00 Build 0)  -->
<svg version="1.1" id="Layer_1" xmlns="http://www.w3.org/2000/svg" xmlns:xlink="http://www.w3.org/1999/xlink" x="0px" y="0px"
	 viewBox="0 0 466.2 455.4" style="enable-background:new 0 0 466.2 455.4;" xml:space="preserve">
<g>
	<path d="M441.3,103.4c-0.1,27.5-5.1,54.3-11.3,81c-0.8,3.6-1.3,7.3-2.6,10.7c-4,10.7-1.5,20,4.6,29.2c7.3,10.9,15.2,21,25.1,29.6
		c2,1.8,5,3.4,3.6,6.9c-1.6,3.7-5,4-8.5,3.8c-0.5,0-1-0.1-1.5-0.2c-1.3-0.1-2.8-1.2-3.8,0.1c-1.1,1.4,0.3,2.8,0.9,4.1
		c2.9,6.1,4.4,12.5,4.4,19.3c0,5.3-1,10.3-3,15.1c-1.5,3.7-0.8,6.3,2.5,8.6c4.5,3.1,8.6,6.9,11.8,11.4c3.5,4.9,3.2,7.8-1.3,11.7
		c-6,5.2-12.9,8.8-20.2,11.7c-4.2,1.6-6.8,4.7-8.8,8.5c-1.2,2.2-0.8,3.7,1.8,4.6c4.1,1.5,8.1,3.1,12,4.9c2.3,1.1,4.5,2.8,3.3,5.8
		c-1.3,3.2-4,3-6.7,2.1c-3.9-1.4-7.9-2.7-11.8-4.2c-3-1.2-5.3-0.9-7.3,2c-19.3,28.1-47,43.1-79.7,49.9c-22.9,4.7-44,13.9-64.7,24.5
		c-28.1,14.3-57.5,13.5-86.9,4c-4.5-1.5-8.6-4.3-12.9-6.6c-21.5-11.5-44.7-18-68.1-24.2c-28.7-7.7-52.9-22.5-70.8-46.7
		c-2.4-3.2-4.9-4-8.6-2.5c-3.9,1.5-7.9,2.7-11.8,4c-2.1,0.7-4.4,1-5.6-1.6c-1.2-2.6,0.1-4.6,2.2-6c3.5-2.3,7.5-3.5,11.5-4.7
		c3.3-1,3.8-2.7,2.2-5.5c-2.5-4.4-5.8-7.7-10.7-9.2c-6.5-2-12-5.7-17.1-10.1c-4.3-3.6-4.8-7.1-1.7-11.8c3.2-4.8,7.7-8.3,12.4-11.5
		c3.7-2.5,4.9-5.1,3-9.6c-4.7-11.4-5.3-23,0.1-34.4c1.5-3.2,0.3-4.3-2.8-4.2c-0.2,0-0.3,0-0.5,0c-3.5-0.3-8,1.3-9.6-3.3
		c-1.5-4.5,2.9-6.4,5.5-8.6c12.2-10,21.5-22.2,28.7-36.1c2.1-4.1,2.5-8.1,1.4-12.5c-4.7-19.8-10-39.4-12.8-59.6
		c-4.5-32.3-4.2-64.4,4.5-96.1c3.3-12.1,8.3-23.6,15.2-34.1C54.6,2.2,65.3-1.8,78.3,0.7c25.8,5,48,17.4,68,34.2
		c10.4,8.7,19.6,18.5,27.9,29.3c2.9,3.8,6.1,4.5,10.4,3.6c16.1-3.6,32.6-5.3,49.1-5.2c15.5,0.1,31,1.6,46.1,5.1
		c6.8,1.6,11-0.2,15.3-5.8c19.1-25,43.2-43.8,72.6-55.4c8.1-3.2,16.5-5.3,25.2-6c11.5-0.9,20.4,3.5,26.6,13.3
		c10.4,16.4,15.6,34.5,18.8,53.4C440.3,79.1,441.4,91.2,441.3,103.4z M233,444.3c13.8,0.8,26.9-1,39.5-6c6.2-2.5,12-5.8,17.8-9.1
		c17.5-9.8,36.9-14.2,56.1-19.1c25.5-6.4,48-18.1,65.1-38.5c6.8-8.1,6.7-8.1-3.1-12.1c-2.3-0.9-5.2-1.8-4.2-5.1
		c1.1-3.4,3.8-4.5,7.2-3.3c2.7,0.9,5.3,1.9,8,2.8c2,0.7,3.7,0.4,4.6-1.7c1-2.4-0.9-2.8-2.4-3.4c-0.9-0.4-1.9-0.7-2.7-1.2
		c-2-1.2-4.2-2.6-3.2-5.5c0.9-2.7,3.2-2.3,5.4-2.1c11.4,1,21.8-2,31.3-8.1c4.8-3.1,5-4.1,0.8-8.3c-12.1-11.9-26.7-19.2-43.2-22.8
		c-23.3-5-46.8-3.8-70.1-0.4c-37.8,5.5-67.7-13.6-78.2-50.5c-4.9-17.3-5-34.9-3.3-52.5c2.2-23.2,8-45.9,11.9-68.9
		c2.5-14.9,4.6-29.9,6.4-45c0.5-4.5-0.7-6.9-5.5-7.3c-7-0.6-13.9-1.6-20.9-1.7c-3.2,0-5,1.1-5.1,4.6c-0.1,3.3-0.6,6.6-0.8,10
		c-1.4,25.6-3.5,51.2-6.2,76.6c-0.5,4.5-1.3,8.9-2.1,13.3c-0.3,1.5-1,3-2.9,2.9c-1.6-0.1-2.1-1.4-2.5-2.7c-0.3-1.1-0.6-2.3-0.8-3.4
		c-2.2-13.6-3.9-27.4-5-41.1c-1.5-18.4-2.8-36.9-4.1-55.3c-0.2-3-1-5.4-4.7-5.1c-7.3,0.6-14.6,1.5-21.9,2.1c-4.1,0.3-5.3,2.5-5,6.3
		c0.7,9.5,2.2,18.9,3.6,28.2c4.4,29.1,11.9,57.7,15,87.1c2.1,19.8,1.7,39.2-5.2,58.1c-11.2,30.5-39.4,48.8-71,45
		c-21-2.5-42-5-63.2-2.3c-21.3,2.7-40.2,10.4-55.8,25.5c-3.6,3.5-3.4,4.8,1,7.5c9.7,5.8,20.3,8.3,31.5,8.6c2.3,0,5.2-0.5,5.6,2.7
		c0.4,3-2.1,4.3-4.5,5.3c-0.9,0.4-1.9,0.5-2.9,0.6c-1.2,0.2-2.4,0.4-2.5,1.9c0,1.3,0.8,2.1,1.9,2.7c1.6,0.9,3.2,0.6,4.8,0.2
		c2.7-0.8,5.4-1.7,8.2-2.1c2.8-0.4,5,0.8,5.8,3.6c0.8,3-1.5,4.1-3.8,4.9c-1.3,0.4-2.6,0.8-3.8,1.1c-5.9,1.8-6,2.3-2.1,7.1
		c0.7,0.9,1.6,1.7,2.3,2.6c18.8,20.9,42.1,33.9,69.3,40.4c18.5,4.4,37,9,53.6,18.7C194.6,440.1,213,445.7,233,444.3z M363.1,240.7
		c0.5-9.4-3.1-18.9-9.6-27.3c-11.1-14.4-33.6-17.6-48-6.5c-15.9,12.2-20.6,28.9-18.5,48.4c3,27.2,31.3,38.6,53.4,27.2
		C356.7,274.2,363.1,259.8,363.1,240.7z M180,246.2c0.3-6.7-1.4-14-4.3-21c-10.4-25-40-33.2-59.1-15.8c-12.3,11.2-15.6,25.8-13.1,42
		c3.6,23.5,24.6,38.7,47.8,34.6C169.1,282.8,179.8,268.3,180,246.2z M369.4,18c-0.6,0.2-1.2,0.3-1.8,0.5
		c-24.8,10.8-46,26.5-63.2,47.4c-0.8,1-2.1,2.1-0.9,3.5c0.9,1.1,2.4,0.9,3.8,0.7c2.3-0.2,3.3-2.1,4.5-3.6
		c6.7-8.5,13.8-16.6,21.9-23.9C344.5,33,356.5,25,369.4,18z M106.1,21.8c18.8,11.8,34.4,26.9,47.7,44.5c1.2,1.6,2.4,3.2,4.4,3.9
		c2,0.7,4.2,1.1,5.5-0.7c1.4-1.9-0.8-2.9-1.8-4.1c-14.4-16.5-31.4-29.8-50.2-40.8C109.9,23.5,107.9,22.7,106.1,21.8z"/>
	<path d="M277.3,373.3c9.8,0.6,18.8-2.1,27.3-6.7c2-1.1,4.3-2.9,6,0.1c1.4,2.5-0.7,4-2.5,5.2c-12.3,8.2-25.7,12.5-40.7,10.1
		c-5.4-0.9-9.9,0-14.6,3c-13.7,8.8-27.6,9-40.9-1c-3.8-2.8-7.7-2.7-11.9-2c-14.5,2.3-27.8-0.8-40.1-8.5c-0.4-0.3-0.9-0.5-1.2-0.8
		c-2-1.7-5.2-3.4-3.6-6.3c1.9-3.5,4.7-0.6,6.9,0.4c15.5,7.7,31.4,9.5,47.9,3.8c12.6-4.3,19.5-14.7,19.2-27.9
		c-0.1-2.7-0.8-4.8-3.2-6.3c-6.7-4.3-13.3-8.9-20.2-13c-5.6-3.3-8.4-7.9-8-14.4c0.4-6.2,4.6-8.9,9.7-10.7c16.4-5.9,32.9-5.9,49.5-1
		c6.1,1.8,11.3,5,11.9,11.9c0.6,6.9-3.4,11.5-9.4,14.6c-7,3.6-12.9,8.8-19.5,13c-1.7,1.1-2.5,2.6-2.4,4.6
		c0.6,13.5,3.9,23.7,19.8,28.9C263.7,372.5,270.4,373.8,277.3,373.3z M232.4,382.4c5.3,0.2,10.3-0.7,14.9-3.2c2-1.1,2.5-2.2,0.2-3.4
		c-4.9-2.6-8.9-6.4-12.3-10.8c-1.4-1.8-2.6-2.4-4.2-0.2c-3.1,4.2-6.8,7.7-11.3,10.4c-2.8,1.7-1.8,3,0.3,4.4
		C223.7,382,228,382.5,232.4,382.4z M214.7,306.7c12.3,3.3,24.5,2.9,36.7-0.1C239.2,304.4,226.9,303.7,214.7,306.7z"/>
	<path d="M396.5,333.5c-18.4-2.1-36.8-3.4-55.3-3.7c-12.5-0.2-24.9,0.7-37.4,1.1c-2,0.1-4.4,0.5-4.7-2.3c-0.3-2.4,2-2.9,3.7-3.3
		c18.4-4.4,37.1-6.4,56-4.8c11.8,1,23.6,1.6,35.3,3.5c1.3,0.2,2.6,0.4,3.9,0.8c2.9,0.7,5.1,2.1,4.4,5.5
		C401.8,333.6,399.1,333.6,396.5,333.5z"/>
	<path d="M158.4,330.6c-30.2-1.9-58.9-0.8-87.5,2.7c-3,0.4-6.1,0.2-6.6-3.5c-0.5-3.5,2.3-4.9,5.2-5.6c6.5-1.5,13.1-2.1,19.8-2.7
		c23.6-2.1,47.2-3.2,70.4,2.8c2.6,0.7,7.4,0.3,6.9,4.1c-0.5,4-4.9,1.6-7.6,2.1C158.3,330.8,157.6,330.6,158.4,330.6z"/>
	<path d="M142.7,339.6c6,0,12-0.1,17.9,0.1c1.9,0.1,4.4,0.4,4.4,3.1c0,2.7-2.3,2.9-4.3,3.1c-9.9,0.9-19.9,1.8-29.8,2.5
		c-18.6,1.4-36.9,5-55.3,7.7c-1.7,0.2-3.3,0.6-4.9-0.1c-1.5-0.6-2.5-1.6-2.7-3.3c-0.1-1.5,0.6-2.7,1.9-3.3c1.5-0.7,3.1-1.3,4.7-1.7
		C97,342.4,119.6,339,142.7,339.6z"/>
	<path d="M324.6,339.5c22.1-0.5,43.8,2.3,65.2,7.8c3.2,0.8,8.2,1,7.5,5.6c-0.8,5-5.8,2.9-8.8,2.4c-27.4-4.9-55.1-7.6-82.8-9.6
		c-2.1-0.2-4.9-0.1-5-3c-0.1-3,2.9-3,4.9-3.1C311.9,339.4,318.3,339.5,324.6,339.5z"/>
	<path d="M305.9,353.4c25,2.6,47.9,10.3,68.3,25c1.2,0.8,2.4,2,3,3.3c1,2.4-0.1,4-2.8,3.8c-1.3-0.1-2.5-0.7-3.7-1.3
		c-21-10.2-43-17.7-65.3-24.3c-0.2,0-0.3-0.1-0.5-0.1c-2-0.7-4.8-1-4.1-4C301.4,353.1,304.1,353.6,305.9,353.4z"/>
	<path d="M159.8,353.3c2.6,0.2,4.7,0.2,5.2,2.4c0.5,2.4-1.5,3.1-3.3,3.7c-6.2,2-12.3,4-18.5,5.8c-16.5,4.8-32.2,11.5-47.6,19.1
		c-2.1,1-4.7,3.3-6.5,0c-1.7-3,1.1-4.5,3-5.9C112.5,363.3,135.8,356.3,159.8,353.3z"/>
	<path d="M343.4,236.2c-0.3,13.9-4.5,24.9-14.6,33.2c-10.2,8.4-23.8,6.7-31.6-4c-11.5-15.9-6.6-41.9,9.8-52.9
		c14.6-9.7,30.6-3.6,35,13.4C343,229.7,343.6,233.5,343.4,236.2z"/>
	<path d="M175.4,244.6c0.1,7.4-1.6,14.2-5.8,20.3c-7.6,11-21,13-31.9,4.6c-14.3-11-19.3-33.8-11-49.8c6.3-12,18.9-15.7,30.5-8.7
		C169.6,218.7,175,230.3,175.4,244.6z"/>
</g>
</svg>
